<?xml version="1.0" encoding="UTF-8"?>
<svg width="137px" height="16px" viewBox="0 0 137 16" version="1.1" xmlns="http://www.w3.org/2000/svg" xmlns:xlink="http://www.w3.org/1999/xlink">
    <!-- Generator: Sketch 50.2 (55047) - http://www.bohemiancoding.com/sketch -->
    <title>Logo</title>
    <desc>Created with Sketch.</desc>
    <defs></defs>
    <g id="Page-1" stroke="none" stroke-width="1" fill="none" fill-rule="evenodd">
        <g id="4" transform="translate(-673.000000, -177.000000)">
            <g id="Logo" transform="translate(673.000000, 171.000000)">
                <g id="soccer-ball-copy-2" transform="translate(40.000000, 7.500000)" fill-rule="nonzero">
                    <circle id="Oval" fill="#334667" cx="6.93847656" cy="7.56152344" r="6.93847656"></circle>
                    <g id="Group" transform="translate(0.424805, 5.012695)" fill="#FFFFFF">
                        <path d="M4.65328223,3.44329687 L0.0254316406,8.91424316 C-0.00311523437,8.94797266 -0.00104785156,8.99795801 0.0302177734,9.02919531 C0.0467285156,9.04573437 0.0685068359,9.05408887 0.0903134766,9.05408887 C0.109769531,9.05408887 0.129253906,9.04743359 0.145169922,9.03400977 L5.61563477,4.40649902 C5.25477734,4.12836523 4.93107617,3.80440918 4.65328223,3.44329687 Z" id="Shape"></path>
                        <path d="M3.89106934,2.06571191 L0.869716797,5.63752637 C0.841169922,5.67125586 0.843237305,5.72124121 0.87450293,5.75247852 C0.891013672,5.76898926 0.912791992,5.77737207 0.934598633,5.77737207 C0.954054688,5.77737207 0.973539063,5.7707168 0.989455078,5.75729297 L4.3136084,2.94536914 C4.14677344,2.6677168 4.00480371,2.37352539 3.89106934,2.06571191 Z" id="Shape"></path>
                        <path d="M6.19263281,4.79358105 L3.41854492,8.07307324 C3.38999805,8.10680273 3.39206543,8.15678809 3.42333105,8.18802539 C3.4398418,8.20453613 3.46162012,8.21291895 3.48342676,8.21291895 C3.50285449,8.21291895 3.52236719,8.20626367 3.53825488,8.19283984 L7.07645313,5.19989258 C6.7677334,5.0914541 6.4720127,4.95517676 6.19263281,4.79358105 Z" id="Shape"></path>
                        <path d="M8.80761719,5.49414063 C8.49317676,5.49414063 8.18519336,5.46624512 7.88584766,5.41288965 L5.68416992,8.01566797 C5.65562305,8.04939746 5.65769043,8.09938281 5.68895605,8.13062012 C5.7054668,8.14713086 5.72724512,8.15551367 5.74905176,8.15551367 C5.76847949,8.15551367 5.78799219,8.1488584 5.80387988,8.13543457 L8.92812012,5.49263965 C8.8880752,5.49351758 8.84791699,5.49414063 8.80761719,5.49414063 Z" id="Shape"></path>
                        <path d="M3.56835938,0.254882812 C3.56835938,0.178248047 3.57037012,0.102066406 3.57362695,0.0262246094 L0.983734375,3.08793359 C0.9551875,3.12166309 0.957254883,3.17164844 0.988520508,3.20288574 C1.00503125,3.21939648 1.02680957,3.2277793 1.04861621,3.2277793 C1.06807227,3.2277793 1.08755664,3.22112402 1.10347266,3.2077002 L3.63171191,1.06906348 C3.5901377,0.803645508 3.56835938,0.531770508 3.56835938,0.254882812 Z" id="Shape"></path>
                    </g>
                    <circle id="Oval" fill="#FFFFFF" cx="9.23242188" cy="5.26757812" r="5.26757812"></circle>
                    <g id="Group" transform="translate(3.964844, 0.339844)" fill="#FFFFFF">
                        <path d="M0.609226563,7.38823145 L1.53954883,7.53558203 C1.10049902,6.76671387 0.849609375,5.87652148 0.849609375,4.92773438 C0.849609375,4.8374209 0.852016602,4.74770215 0.856491211,4.65849316 L0.749723633,4.32017871 L0.00523925781,4.6995293 C0.00198242187,4.77520117 0,4.85124121 0,4.92773438 C0,5.81656738 0.220473633,6.65380078 0.609226563,7.38823145 Z" id="Shape"></path>
                        <path d="M3.66963281,0.262472656 L3.34097559,0.0236757813 C2.68046094,0.283373047 2.08530957,0.672890625 1.58639063,1.16048145 L1.72289453,2.02238184 C2.21192969,1.28426953 2.88190332,0.676572266 3.66963281,0.262472656 Z" id="Shape"></path>
                        <path d="M3.38368262,9.84802051 C3.96872363,10.0721475 4.60372168,10.1953125 5.26757813,10.1953125 C5.41062402,10.1953125 5.55225391,10.1894219 5.69238281,10.1782354 C4.82144824,10.108709 4.01038281,9.8270918 3.31044629,9.38549316 L3.38368262,9.84802051 Z" id="Shape"></path>
                    </g>
                    <path d="M13.7542979,4.6473916 L14.4941943,5.0243916 C14.4320312,3.65683203 13.8484912,2.42529492 12.93754,1.52371777 L12.7645596,2.61597559 L10.2952549,0.991125977 L11.1590527,0.363547852 C10.5623154,0.128914063 9.9124209,0 9.23242188,0 C8.55242285,0 7.90252832,0.128914063 7.30581934,0.363519531 L8.16961719,0.991097656 L5.72531934,2.59949316 L5.55120605,1.50029688 C4.6232627,2.4071416 4.02913086,3.65388672 3.97005469,5.03934473 L4.71453906,4.65999414 L5.74126367,7.91292188 L4.57404199,7.72804688 C5.1672959,8.84893652 6.15309766,9.72986816 7.34852637,10.1878359 L7.22561621,9.41197266 L11.2348379,9.41197266 L11.1116445,10.1896201 C12.3079795,9.73255859 13.2948008,8.8521084 13.8890176,7.73127539 L12.7225605,7.91600879 L13.7542979,4.6473916 Z M12.3796016,7.97041211 L11.6649951,8.0836084 L10.4610703,6.87965527 L11.0510391,5.0638418 L12.7014619,4.11097656 L13.4735586,4.50437402 L12.3796016,7.97041211 Z M12.7111758,2.9528457 L12.5728311,3.82638574 L10.9850244,4.74314258 L9.38781543,3.58271777 L9.38781543,1.65039453 L10.0266084,1.18628125 L12.7111758,2.9528457 Z M8.43826367,1.18630957 L9.07705664,1.65042285 L9.07705664,3.58268945 L7.48616309,4.73852637 L5.92098437,3.83488184 L5.77870312,2.9363916 L8.43826367,1.18630957 Z M4.99530664,4.51697656 L5.78442383,4.11491309 L7.41051953,5.05370313 L7.9981377,6.86209668 L6.78243164,8.07783105 L6.08433594,7.96729688 L4.99530664,4.51697656 Z M7.17639551,9.10121387 L7.04266699,8.25701367 L8.23435742,7.06535156 L10.2072637,7.06535156 L11.4151816,8.27329785 L11.2840586,9.10118555 L7.17639551,9.10118555 L7.17639551,9.10121387 Z" id="Shape" fill="#000000"></path>
                </g>
                <text id="MY" font-family="ChalkboardSE-Bold, Chalkboard SE" font-size="18" font-weight="bold" letter-spacing="-0.5" fill="#334667">
                    <tspan x="0" y="20">M</tspan>
                    <tspan x="14.7950276" y="20">Y</tspan>
                </text>
                <text id="S" font-family="ChalkboardSE-Bold, Chalkboard SE" font-size="18" font-weight="bold" fill="#334667">
                    <tspan x="29" y="20">S</tspan>
                </text>
                <text id="CCERSHIP" font-family="ChalkboardSE-Bold, Chalkboard SE" font-size="18" font-weight="bold" letter-spacing="-0.5" fill="#334667">
                    <tspan x="54.5" y="20">CCERSHI</tspan>
                    <tspan x="125.744751" y="20">P</tspan>
                </text>
            </g>
        </g>
    </g>
</svg>