<?xml version="1.0" encoding="UTF-8"?>
<svg width="273px" height="30px" viewBox="0 0 273 30" version="1.1" xmlns="http://www.w3.org/2000/svg" xmlns:xlink="http://www.w3.org/1999/xlink">
    <!-- Generator: Sketch 50.2 (55047) - http://www.bohemiancoding.com/sketch -->
    <title>Logo</title>
    <desc>Created with Sketch.</desc>
    <defs></defs>
    <g id="Page-1" stroke="none" stroke-width="1" fill="none" fill-rule="evenodd">
        <g id="1" transform="translate(-1175.000000, -513.000000)">
            <g id="Logo" transform="translate(1175.000000, 499.000000)">
                <g id="soccer-ball-copy-2" transform="translate(80.000000, 15.000000)" fill-rule="nonzero">
                    <circle id="Oval" fill="#334667" cx="13.8769531" cy="15.1230469" r="13.8769531"></circle>
                    <g id="Group" transform="translate(0.849609, 10.025391)" fill="#FFFFFF">
                        <path d="M9.30656445,6.88659375 L0.0508632813,17.8284863 C-0.00623046875,17.8959453 -0.00209570312,17.995916 0.0604355469,18.0583906 C0.0934570313,18.0914687 0.137013672,18.1081777 0.180626953,18.1081777 C0.219539063,18.1081777 0.258507813,18.0948672 0.290339844,18.0680195 L11.2312695,8.81299805 C10.5095547,8.25673047 9.86215234,7.60881836 9.30656445,6.88659375 Z" id="Shape"></path>
                        <path d="M7.78213867,4.13142383 L1.73943359,11.2750527 C1.68233984,11.3425117 1.68647461,11.4424824 1.74900586,11.504957 C1.78202734,11.5379785 1.82558398,11.5547441 1.86919727,11.5547441 C1.90810938,11.5547441 1.94707813,11.5414336 1.97891016,11.5145859 L8.6272168,5.89073828 C8.29354688,5.33543359 8.00960742,4.74705078 7.78213867,4.13142383 Z" id="Shape"></path>
                        <path d="M12.3852656,9.58716211 L6.83708984,16.1461465 C6.77999609,16.2136055 6.78413086,16.3135762 6.84666211,16.3760508 C6.87968359,16.4090723 6.92324023,16.4258379 6.96685352,16.4258379 C7.00570898,16.4258379 7.04473438,16.4125273 7.07650977,16.3856797 L14.1529063,10.3997852 C13.5354668,10.1829082 12.9440254,9.91035352 12.3852656,9.58716211 Z" id="Shape"></path>
                        <path d="M17.6152344,10.9882813 C16.9863535,10.9882813 16.3703867,10.9324902 15.7716953,10.8257793 L11.3683398,16.0313359 C11.3112461,16.0987949 11.3153809,16.1987656 11.3779121,16.2612402 C11.4109336,16.2942617 11.4544902,16.3110273 11.4981035,16.3110273 C11.536959,16.3110273 11.5759844,16.2977168 11.6077598,16.2708691 L17.8562402,10.9852793 C17.7761504,10.9870352 17.695834,10.9882813 17.6152344,10.9882813 Z" id="Shape"></path>
                        <path d="M7.13671875,0.509765625 C7.13671875,0.356496094 7.14074023,0.204132813 7.14725391,0.0524492187 L1.96746875,6.17586719 C1.910375,6.24332617 1.91450977,6.34329688 1.97704102,6.40577148 C2.0100625,6.43879297 2.05361914,6.45555859 2.09723242,6.45555859 C2.13614453,6.45555859 2.17511328,6.44224805 2.20694531,6.41540039 L7.26342383,2.13812695 C7.18027539,1.60729102 7.13671875,1.06354102 7.13671875,0.509765625 Z" id="Shape"></path>
                    </g>
                    <circle id="Oval" fill="#FFFFFF" cx="18.4648438" cy="10.5351562" r="10.5351562"></circle>
                    <g id="Group" transform="translate(7.929688, 0.679688)" fill="#FFFFFF">
                        <path d="M1.21845313,14.7764629 L3.07909766,15.0711641 C2.20099805,13.5334277 1.69921875,11.753043 1.69921875,9.85546875 C1.69921875,9.6748418 1.7040332,9.4954043 1.71298242,9.31698633 L1.49944727,8.64035742 L0.0104785156,9.39905859 C0.00396484375,9.55040234 0,9.70248242 0,9.85546875 C0,11.6331348 0.440947266,13.3076016 1.21845313,14.7764629 Z" id="Shape"></path>
                        <path d="M7.33926563,0.524945313 L6.68195117,0.0473515625 C5.36092188,0.566746094 4.17061914,1.34578125 3.17278125,2.32096289 L3.44578906,4.04476367 C4.42385938,2.56853906 5.76380664,1.35314453 7.33926563,0.524945313 Z" id="Shape"></path>
                        <path d="M6.76736523,19.696041 C7.93744727,20.1442949 9.20744336,20.390625 10.5351563,20.390625 C10.821248,20.390625 11.1045078,20.3788438 11.3847656,20.3564707 C9.64289648,20.217418 8.02076563,19.6541836 6.62089258,18.7709863 L6.76736523,19.696041 Z" id="Shape"></path>
                    </g>
                    <path d="M27.5085957,9.2947832 L28.9883887,10.0487832 C28.8640625,7.31366406 27.6969824,4.85058984 25.8750801,3.04743555 L25.5291191,5.23195117 L20.5905098,1.98225195 L22.3181055,0.727095703 C21.1246309,0.257828125 19.8248418,0 18.4648438,0 C17.1048457,0 15.8050566,0.257828125 14.6116387,0.727039063 L16.3392344,1.98219531 L11.4506387,5.19898633 L11.1024121,3.00059375 C9.24652539,4.8142832 8.05826172,7.30777344 7.94010937,10.0786895 L9.42907813,9.31998828 L11.4825273,15.8258438 L9.14808398,15.4560938 C10.3345918,17.697873 12.3061953,19.4597363 14.6970527,20.3756719 L14.4512324,18.8239453 L22.4696758,18.8239453 L22.2232891,20.3792402 C24.615959,19.4651172 26.5896016,17.7042168 27.7780352,15.4625508 L25.4451211,15.8320176 L27.5085957,9.2947832 Z M24.7592031,15.9408242 L23.3299902,16.1672168 L20.9221406,13.7593105 L22.1020781,10.1276836 L25.4029238,8.22195313 L26.9471172,9.00874805 L24.7592031,15.9408242 Z M25.4223516,5.90569141 L25.1456621,7.65277148 L21.9700488,9.48628516 L18.7756309,7.16543555 L18.7756309,3.30078906 L20.0532168,2.3725625 L25.4223516,5.90569141 Z M16.8765273,2.37261914 L18.1541133,3.3008457 L18.1541133,7.16537891 L14.9723262,9.47705273 L11.8419687,7.66976367 L11.5574062,5.8727832 L16.8765273,2.37261914 Z M9.99061328,9.03395313 L11.5688477,8.22982617 L14.8210391,10.1074063 L15.9962754,13.7241934 L13.5648633,16.1556621 L12.1686719,15.9345938 L9.99061328,9.03395313 Z M14.352791,18.2024277 L14.085334,16.5140273 L16.4687148,14.1307031 L20.4145273,14.1307031 L22.8303633,16.5465957 L22.5681172,18.2023711 L14.352791,18.2023711 L14.352791,18.2024277 Z" id="Shape" fill="#000000"></path>
                </g>
                <text id="MY" font-family="ChalkboardSE-Bold, Chalkboard SE" font-size="36" font-weight="bold" letter-spacing="-1" fill="#334667">
                    <tspan x="0" y="41">M</tspan>
                    <tspan x="29.5900552" y="41">Y</tspan>
                </text>
                <text id="S" font-family="ChalkboardSE-Bold, Chalkboard SE" font-size="36" font-weight="bold" fill="#334667">
                    <tspan x="58" y="41">S</tspan>
                </text>
                <text id="CCERSHIP" font-family="ChalkboardSE-Bold, Chalkboard SE" font-size="36" font-weight="bold" letter-spacing="-1" fill="#334667">
                    <tspan x="109" y="41">CCERSHI</tspan>
                    <tspan x="251.489503" y="41">P</tspan>
                </text>
            </g>
        </g>
    </g>
</svg>